<mxfile host="app.diagrams.net" modified="2024-02-16T14:07:04.705Z" agent="Mozilla/5.0 (Windows NT 10.0; Win64; x64) AppleWebKit/537.36 (KHTML, like Gecko) Chrome/121.0.0.0 Safari/537.36" etag="3IujXCMyitRyDIFoU20O" version="23.1.2" type="github">
  <diagram name="Page-1" id="T6i9w9TfARhypOOavG94">
    <mxGraphModel dx="1768" dy="1462" grid="1" gridSize="10" guides="1" tooltips="1" connect="1" arrows="1" fold="1" page="1" pageScale="1" pageWidth="850" pageHeight="1100" math="0" shadow="0">
      <root>
        <mxCell id="0" />
        <mxCell id="1" parent="0" />
        <mxCell id="Q-lzj5xL4Q_ayezyyeWe-3" style="edgeStyle=orthogonalEdgeStyle;rounded=0;orthogonalLoop=1;jettySize=auto;html=1;entryX=0;entryY=0.5;entryDx=0;entryDy=0;" edge="1" parent="1" source="Q-lzj5xL4Q_ayezyyeWe-1" target="Q-lzj5xL4Q_ayezyyeWe-2">
          <mxGeometry relative="1" as="geometry" />
        </mxCell>
        <mxCell id="Q-lzj5xL4Q_ayezyyeWe-11" value="" style="edgeStyle=orthogonalEdgeStyle;rounded=0;orthogonalLoop=1;jettySize=auto;html=1;" edge="1" parent="1" source="Q-lzj5xL4Q_ayezyyeWe-1" target="Q-lzj5xL4Q_ayezyyeWe-10">
          <mxGeometry relative="1" as="geometry" />
        </mxCell>
        <mxCell id="Q-lzj5xL4Q_ayezyyeWe-12" value="" style="edgeStyle=orthogonalEdgeStyle;rounded=0;orthogonalLoop=1;jettySize=auto;html=1;" edge="1" parent="1" source="Q-lzj5xL4Q_ayezyyeWe-1" target="Q-lzj5xL4Q_ayezyyeWe-10">
          <mxGeometry relative="1" as="geometry" />
        </mxCell>
        <mxCell id="Q-lzj5xL4Q_ayezyyeWe-14" value="" style="edgeStyle=orthogonalEdgeStyle;rounded=0;orthogonalLoop=1;jettySize=auto;html=1;" edge="1" parent="1" source="Q-lzj5xL4Q_ayezyyeWe-1" target="Q-lzj5xL4Q_ayezyyeWe-13">
          <mxGeometry relative="1" as="geometry" />
        </mxCell>
        <mxCell id="Q-lzj5xL4Q_ayezyyeWe-20" value="" style="edgeStyle=orthogonalEdgeStyle;rounded=0;orthogonalLoop=1;jettySize=auto;html=1;" edge="1" parent="1" source="Q-lzj5xL4Q_ayezyyeWe-1" target="Q-lzj5xL4Q_ayezyyeWe-13">
          <mxGeometry relative="1" as="geometry" />
        </mxCell>
        <mxCell id="Q-lzj5xL4Q_ayezyyeWe-22" value="" style="edgeStyle=orthogonalEdgeStyle;rounded=0;orthogonalLoop=1;jettySize=auto;html=1;" edge="1" parent="1" source="Q-lzj5xL4Q_ayezyyeWe-1" target="Q-lzj5xL4Q_ayezyyeWe-21">
          <mxGeometry relative="1" as="geometry">
            <Array as="points">
              <mxPoint x="240" y="120" />
              <mxPoint x="460" y="120" />
            </Array>
          </mxGeometry>
        </mxCell>
        <mxCell id="Q-lzj5xL4Q_ayezyyeWe-1" value="Existing-UI(X)" style="rounded=1;whiteSpace=wrap;html=1;" vertex="1" parent="1">
          <mxGeometry x="180" y="150" width="120" height="60" as="geometry" />
        </mxCell>
        <mxCell id="Q-lzj5xL4Q_ayezyyeWe-4" style="edgeStyle=orthogonalEdgeStyle;rounded=0;orthogonalLoop=1;jettySize=auto;html=1;entryX=1;entryY=0.75;entryDx=0;entryDy=0;" edge="1" parent="1" source="Q-lzj5xL4Q_ayezyyeWe-2" target="Q-lzj5xL4Q_ayezyyeWe-1">
          <mxGeometry relative="1" as="geometry" />
        </mxCell>
        <mxCell id="Q-lzj5xL4Q_ayezyyeWe-9" style="edgeStyle=orthogonalEdgeStyle;rounded=0;orthogonalLoop=1;jettySize=auto;html=1;entryX=0.5;entryY=0;entryDx=0;entryDy=0;" edge="1" parent="1" source="Q-lzj5xL4Q_ayezyyeWe-2" target="Q-lzj5xL4Q_ayezyyeWe-6">
          <mxGeometry relative="1" as="geometry">
            <Array as="points">
              <mxPoint x="520" y="230" />
              <mxPoint x="240" y="230" />
            </Array>
          </mxGeometry>
        </mxCell>
        <mxCell id="Q-lzj5xL4Q_ayezyyeWe-2" value="Backend" style="ellipse;whiteSpace=wrap;html=1;" vertex="1" parent="1">
          <mxGeometry x="460" y="140" width="120" height="80" as="geometry" />
        </mxCell>
        <mxCell id="Q-lzj5xL4Q_ayezyyeWe-16" value="" style="edgeStyle=orthogonalEdgeStyle;rounded=0;orthogonalLoop=1;jettySize=auto;html=1;" edge="1" parent="1" source="Q-lzj5xL4Q_ayezyyeWe-5" target="Q-lzj5xL4Q_ayezyyeWe-15">
          <mxGeometry relative="1" as="geometry" />
        </mxCell>
        <mxCell id="Q-lzj5xL4Q_ayezyyeWe-19" value="" style="edgeStyle=orthogonalEdgeStyle;rounded=0;orthogonalLoop=1;jettySize=auto;html=1;" edge="1" parent="1" source="Q-lzj5xL4Q_ayezyyeWe-5" target="Q-lzj5xL4Q_ayezyyeWe-18">
          <mxGeometry relative="1" as="geometry">
            <Array as="points">
              <mxPoint x="160" y="240" />
            </Array>
          </mxGeometry>
        </mxCell>
        <mxCell id="Q-lzj5xL4Q_ayezyyeWe-5" value="Agency-UI/UX" style="rounded=1;whiteSpace=wrap;html=1;" vertex="1" parent="1">
          <mxGeometry x="20" y="210" width="120" height="60" as="geometry" />
        </mxCell>
        <mxCell id="Q-lzj5xL4Q_ayezyyeWe-7" style="edgeStyle=orthogonalEdgeStyle;rounded=0;orthogonalLoop=1;jettySize=auto;html=1;entryX=0.5;entryY=1;entryDx=0;entryDy=0;" edge="1" parent="1" source="Q-lzj5xL4Q_ayezyyeWe-6" target="Q-lzj5xL4Q_ayezyyeWe-2">
          <mxGeometry relative="1" as="geometry" />
        </mxCell>
        <mxCell id="Q-lzj5xL4Q_ayezyyeWe-6" value="New-UI" style="rounded=1;whiteSpace=wrap;html=1;" vertex="1" parent="1">
          <mxGeometry x="180" y="280" width="120" height="60" as="geometry" />
        </mxCell>
        <mxCell id="Q-lzj5xL4Q_ayezyyeWe-10" value="III.com.sg&lt;br&gt;(static)" style="ellipse;whiteSpace=wrap;html=1;rounded=1;" vertex="1" parent="1">
          <mxGeometry x="50" width="80" height="80" as="geometry" />
        </mxCell>
        <mxCell id="Q-lzj5xL4Q_ayezyyeWe-13" value="ebao&lt;br&gt;(front+backend)&lt;br&gt;Motor/Personal/Home" style="ellipse;whiteSpace=wrap;html=1;rounded=1;" vertex="1" parent="1">
          <mxGeometry x="200" width="150" height="80" as="geometry" />
        </mxCell>
        <mxCell id="Q-lzj5xL4Q_ayezyyeWe-15" value="Redesigned-static UI/UX" style="whiteSpace=wrap;html=1;rounded=1;" vertex="1" parent="1">
          <mxGeometry x="-110" y="20" width="120" height="60" as="geometry" />
        </mxCell>
        <mxCell id="Q-lzj5xL4Q_ayezyyeWe-25" style="edgeStyle=orthogonalEdgeStyle;rounded=0;orthogonalLoop=1;jettySize=auto;html=1;entryX=0.5;entryY=0;entryDx=0;entryDy=0;" edge="1" parent="1" source="Q-lzj5xL4Q_ayezyyeWe-18" target="Q-lzj5xL4Q_ayezyyeWe-21">
          <mxGeometry relative="1" as="geometry" />
        </mxCell>
        <mxCell id="Q-lzj5xL4Q_ayezyyeWe-28" style="edgeStyle=orthogonalEdgeStyle;rounded=0;orthogonalLoop=1;jettySize=auto;html=1;entryX=0.5;entryY=0;entryDx=0;entryDy=0;" edge="1" parent="1" source="Q-lzj5xL4Q_ayezyyeWe-18" target="Q-lzj5xL4Q_ayezyyeWe-13">
          <mxGeometry relative="1" as="geometry" />
        </mxCell>
        <mxCell id="Q-lzj5xL4Q_ayezyyeWe-18" value="Dynamic" style="rhombus;whiteSpace=wrap;html=1;rounded=1;" vertex="1" parent="1">
          <mxGeometry x="140" y="-170" width="80" height="80" as="geometry" />
        </mxCell>
        <mxCell id="Q-lzj5xL4Q_ayezyyeWe-24" value="" style="edgeStyle=orthogonalEdgeStyle;rounded=0;orthogonalLoop=1;jettySize=auto;html=1;" edge="1" parent="1" source="Q-lzj5xL4Q_ayezyyeWe-21" target="Q-lzj5xL4Q_ayezyyeWe-23">
          <mxGeometry relative="1" as="geometry" />
        </mxCell>
        <mxCell id="Q-lzj5xL4Q_ayezyyeWe-21" value="Synergy&lt;br&gt;Travel&lt;br&gt;(Front)" style="whiteSpace=wrap;html=1;rounded=1;" vertex="1" parent="1">
          <mxGeometry x="400" y="10" width="120" height="60" as="geometry" />
        </mxCell>
        <mxCell id="Q-lzj5xL4Q_ayezyyeWe-23" value="ebao&lt;br&gt;(Backend)" style="whiteSpace=wrap;html=1;rounded=1;" vertex="1" parent="1">
          <mxGeometry x="600" y="10" width="120" height="60" as="geometry" />
        </mxCell>
        <mxCell id="Q-lzj5xL4Q_ayezyyeWe-26" value="React" style="text;html=1;strokeColor=none;fillColor=none;align=center;verticalAlign=middle;whiteSpace=wrap;rounded=0;" vertex="1" parent="1">
          <mxGeometry x="290" y="-160" width="60" height="30" as="geometry" />
        </mxCell>
        <mxCell id="Q-lzj5xL4Q_ayezyyeWe-27" value="Re-design" style="text;html=1;strokeColor=none;fillColor=none;align=center;verticalAlign=middle;whiteSpace=wrap;rounded=0;" vertex="1" parent="1">
          <mxGeometry x="290" y="-120" width="60" height="30" as="geometry" />
        </mxCell>
        <mxCell id="Q-lzj5xL4Q_ayezyyeWe-29" value="1" style="text;html=1;strokeColor=none;fillColor=none;align=center;verticalAlign=middle;whiteSpace=wrap;rounded=0;" vertex="1" parent="1">
          <mxGeometry x="60" y="-20" width="60" height="30" as="geometry" />
        </mxCell>
        <mxCell id="Q-lzj5xL4Q_ayezyyeWe-30" value="2" style="text;html=1;strokeColor=none;fillColor=none;align=center;verticalAlign=middle;whiteSpace=wrap;rounded=0;" vertex="1" parent="1">
          <mxGeometry x="270" y="-20" width="60" height="30" as="geometry" />
        </mxCell>
        <mxCell id="Q-lzj5xL4Q_ayezyyeWe-31" value="3" style="text;html=1;strokeColor=none;fillColor=none;align=center;verticalAlign=middle;whiteSpace=wrap;rounded=0;" vertex="1" parent="1">
          <mxGeometry x="450" y="-20" width="60" height="30" as="geometry" />
        </mxCell>
      </root>
    </mxGraphModel>
  </diagram>
</mxfile>
